<svg width="56" height="56" viewBox="0 0 56 56" fill="none" xmlns="http://www.w3.org/2000/svg">
<path d="M28 56C43.464 56 56 43.464 56 28C56 12.536 43.464 0 28 0C12.536 0 0 12.536 0 28C0 43.464 12.536 56 28 56Z" fill="url(#paint0_linear_1_9623)"/>
<path d="M37.926 12H32.1113L31.3333 12.778L28.568 18.0533L28 18.6667H17.3333V26.4073H23.5553L23.9333 26.896L18.0733 38.074V44H23.9253L24.6287 43.2593L27.3713 38.026L28 37.3333H38.6667V29.6293H32.4813L32.0327 29.1333L37.926 17.8887V12Z" fill="url(#paint1_linear_1_9623)"/>
<defs>
<linearGradient id="paint0_linear_1_9623" x1="-6.03497e-07" y1="67" x2="56" y2="7.5" gradientUnits="userSpaceOnUse">
<stop stop-color="#690D80"/>
<stop offset="1" stop-color="#9130FF"/>
</linearGradient>
<linearGradient id="paint1_linear_1_9623" x1="28" y1="12" x2="28" y2="44" gradientUnits="userSpaceOnUse">
<stop offset="0.0677083" stop-color="white"/>
<stop offset="1" stop-color="#9A5FC0" stop-opacity="0.39"/>
</linearGradient>
</defs>
</svg>
