<svg width="56" height="56" viewBox="0 0 56 56" fill="none" xmlns="http://www.w3.org/2000/svg">
<path d="M28 56C43.464 56 56 43.464 56 28C56 12.536 43.464 0 28 0C12.536 0 0 12.536 0 28C0 43.464 12.536 56 28 56Z" fill="url(#paint0_linear_1_9655)"/>
<path d="M34 25.657V35C34 35.2652 33.8946 35.5196 33.7071 35.7071C33.5196 35.8946 33.2652 36 33 36H19C18.7348 36 18.4804 35.8946 18.2929 35.7071C18.1054 35.5196 18 35.2652 18 35V17C18 16.7348 18.1054 16.4804 18.2929 16.2929C18.4804 16.1054 18.7348 16 19 16H33C33.2652 16 33.5196 16.1054 33.7071 16.2929C33.8946 16.4804 34 16.7348 34 17V19.998L37 16.999V15C37 13.346 35.654 12 34 12H18C16.346 12 15 13.346 15 15V41C15 42.654 16.346 44 18 44H34C35.654 44 37 42.654 37 41V22.656L34 25.657ZM26 42C24.897 42 24 41.103 24 40C24 38.897 24.897 38 26 38C27.103 38 28 38.897 28 40C28 41.103 27.103 42 26 42Z" fill="url(#paint1_linear_1_9655)"/>
<path d="M41.414 12.5856C41.0389 12.2106 40.5303 12 40 12C39.4697 12 38.9611 12.2106 38.586 12.5856L29.087 22.0846C28.4893 21.9569 27.8692 21.9807 27.2831 22.1538C26.697 22.3269 26.1635 22.6437 25.731 23.0756C24.297 24.5096 24 29.9996 24 29.9996C24 29.9996 29.49 29.7026 30.924 28.2686C31.356 27.8362 31.6729 27.3027 31.846 26.7165C32.0191 26.1304 32.0428 25.5102 31.915 24.9126L41.414 15.4136C41.7889 15.0385 41.9996 14.5299 41.9996 13.9996C41.9996 13.4692 41.7889 12.9606 41.414 12.5856Z" fill="url(#paint2_linear_1_9655)"/>
<defs>
<linearGradient id="paint0_linear_1_9655" x1="8.20105" y1="47.799" x2="47.799" y2="8.20105" gradientUnits="userSpaceOnUse">
<stop stop-color="#0072FF"/>
<stop offset="1" stop-color="#00DEB0"/>
</linearGradient>
<linearGradient id="paint1_linear_1_9655" x1="20.5" y1="6.5" x2="26" y2="44" gradientUnits="userSpaceOnUse">
<stop stop-color="white"/>
<stop offset="1" stop-color="white" stop-opacity="0.22"/>
</linearGradient>
<linearGradient id="paint2_linear_1_9655" x1="28.4999" y1="8.90632" x2="30.6507" y2="30.2364" gradientUnits="userSpaceOnUse">
<stop stop-color="white"/>
<stop offset="1" stop-color="white" stop-opacity="0.36"/>
</linearGradient>
</defs>
</svg>
